<?xml version="1.0" encoding="utf-8"?>
<!-- Generator: Adobe Illustrator 15.0.0, SVG Export Plug-In  -->
<!DOCTYPE svg PUBLIC "-//W3C//DTD SVG 1.1//EN" "http://www.w3.org/Graphics/SVG/1.1/DTD/svg11.dtd" [
	<!ENTITY ns_flows "http://ns.adobe.com/Flows/1.0/">
]>
<svg version="1.1"
	 xmlns="http://www.w3.org/2000/svg" xmlns:xlink="http://www.w3.org/1999/xlink" xmlns:a="http://ns.adobe.com/AdobeSVGViewerExtensions/3.0/"
	 x="0px" y="0px" width="24px" height="24px" viewBox="0 0 24 24" enable-background="new 0 0 24 24" xml:space="preserve">
<defs>
</defs>
<path fill="#78CDF0" d="M12,0C5.373,0,0,5.373,0,12s5.373,12,12,12s12-5.373,12-12S18.627,0,12,0z M18.066,9.645
	c0.183,4.041-2.83,8.544-8.165,8.544c-1.622,0-3.131-0.477-4.402-1.291c1.524,0.18,3.045-0.244,4.252-1.189
	c-1.256-0.023-2.317-0.854-2.684-1.995c0.451,0.086,0.895,0.062,1.298-0.049c-1.381-0.278-2.335-1.522-2.304-2.853
	c0.388,0.215,0.83,0.344,1.301,0.359c-1.279-0.855-1.641-2.544-0.889-3.835c1.416,1.738,3.533,2.881,5.92,3.001
	c-0.419-1.796,0.944-3.527,2.799-3.527c0.824,0,1.572,0.349,2.096,0.907c0.654-0.128,1.27-0.368,1.824-0.697
	c-0.215,0.671-0.67,1.233-1.264,1.589c0.582-0.07,1.135-0.224,1.649-0.453C19.115,8.734,18.629,9.24,18.066,9.645z"/>
</svg>
