<?xml version="1.0" encoding="utf-8"?>
<!-- Generator: Adobe Illustrator 15.0.0, SVG Export Plug-In  -->
<!DOCTYPE svg PUBLIC "-//W3C//DTD SVG 1.1//EN" "http://www.w3.org/Graphics/SVG/1.1/DTD/svg11.dtd" [
	<!ENTITY ns_flows "http://ns.adobe.com/Flows/1.0/">
]>
<svg version="1.1"
	 xmlns="http://www.w3.org/2000/svg" xmlns:xlink="http://www.w3.org/1999/xlink" xmlns:a="http://ns.adobe.com/AdobeSVGViewerExtensions/3.0/"
	 x="0px" y="0px" width="24px" height="24px" viewBox="0 0 24 24" enable-background="new 0 0 24 24" xml:space="preserve">
<defs>
</defs>
<path fill="#E8363A" d="M10.918,13.934h0.706v3.795h-0.706v-0.42c-0.13,0.154-0.266,0.272-0.405,0.354
	c-0.381,0.218-0.902,0.213-0.902-0.557v-3.172h0.705v2.908c0,0.153,0.037,0.256,0.188,0.256c0.138,0,0.329-0.176,0.415-0.283
	L10.918,13.934L10.918,13.934z M11.56,9.752c0.2,0,0.311-0.16,0.311-0.377V7.521c0-0.223-0.098-0.38-0.324-0.38
	c-0.208,0-0.309,0.161-0.309,0.38v1.854C11.237,9.585,11.355,9.752,11.56,9.752z M9.619,12.583H7.18v0.747h0.823v4.398h0.795V13.33
	h0.821V12.583z M14.34,14.836v2.105c0,0.47-0.176,0.834-0.645,0.834c-0.26,0-0.475-0.094-0.672-0.34v0.291h-0.711v-5.145h0.711
	v1.656c0.16-0.194,0.375-0.354,0.629-0.354C14.169,13.885,14.34,14.32,14.34,14.836z M13.613,14.879
	c0-0.128-0.024-0.225-0.075-0.292c-0.086-0.112-0.244-0.125-0.367-0.062l-0.146,0.115v2.365l0.166,0.135
	c0.115,0.058,0.283,0.062,0.361-0.039c0.04-0.055,0.061-0.142,0.061-0.263V14.879L13.613,14.879z M24,12c0,6.627-5.373,12-12,12
	S0,18.627,0,12S5.373,0,12,0S24,5.373,24,12z M13.254,9.749c0,0.394,0.12,0.712,0.52,0.712c0.224,0,0.533-0.117,0.854-0.498v0.44
	h0.741V6.417h-0.741v3.025c-0.09,0.113-0.291,0.299-0.437,0.299c-0.158,0-0.196-0.108-0.196-0.269V6.417h-0.741V9.749z
	 M10.475,7.455v1.954c0,0.703,0.367,1.068,1.085,1.068c0.597,0,1.065-0.399,1.065-1.068V7.455c0-0.624-0.465-1.071-1.065-1.071
	C10.908,6.384,10.475,6.816,10.475,7.455z M7.714,5l0.993,3.211v2.191h0.835V8.211L10.513,5H9.665L9.13,7.16L8.555,5H7.714z
	 M17.833,15.208c-0.013-2.604-0.204-3.602-1.849-3.714c-1.518-0.104-6.455-0.103-7.97,0c-1.642,0.112-1.835,1.104-1.848,3.714
	c0.013,2.606,0.204,3.603,1.848,3.715c1.516,0.103,6.453,0.103,7.97,0C17.628,18.811,17.82,17.818,17.833,15.208z M16.948,14.953
	v0.966h-1.351v0.716c0,0.285,0.024,0.531,0.309,0.531c0.298,0,0.314-0.2,0.314-0.531v-0.264h0.728v0.285
	c0,0.73-0.313,1.174-1.058,1.174c-0.676,0-1.019-0.491-1.019-1.174v-1.704c0-0.659,0.435-1.116,1.071-1.116
	C16.621,13.837,16.948,14.268,16.948,14.953z M16.223,14.945c0-0.256-0.055-0.444-0.31-0.444c-0.261,0-0.313,0.185-0.313,0.444
	v0.386h0.623V14.945z"/>
</svg>
